<svg height="512" viewBox="0 0 512 512" width="512" xmlns="http://www.w3.org/2000/svg"><g id="Flat"><path d="m448 256h-384l40-96h304z" fill="#fae7cb"/><path d="m448 256h-48.12a193.3093 193.3093 0 0 0 -14.75-67.68994l-11.79992-28.31006h34.66992z" fill="#e8d0b3"/><path d="m448 256v110.78a122.64922 122.64922 0 0 1 -104 121.22h-176a122.31093 122.31093 0 0 1 -71.46-38.02c-1.02-1.08984-2.01-2.21-2.98-3.33984a122.4114 122.4114 0 0 1 -29.56-79.86016v-110.78l32.93994-32.93994a43.93253 43.93253 0 0 1 62.12012 0l1.87988 1.87988a43.933 43.933 0 0 0 62.12012 0l1.87988-1.87988a43.93253 43.93253 0 0 1 62.12012 0 43.93457 43.93457 0 0 0 63.88994-1.88013l.22-.25a43.90183 43.90183 0 0 1 65.66016 0z" fill="#7ab355"/><path d="m448 256v110.78a122.64922 122.64922 0 0 1 -104 121.22h-176a122.31093 122.31093 0 0 1 -71.46-38.02 122.1383 122.1383 0 0 0 23.46 6.02h86.66992c106.77002 0 193.33008-86.56006 193.33008-193.33008a193.47771 193.47771 0 0 0 -8.22-55.7998 43.66486 43.66486 0 0 1 25.05005 14.05981z" fill="#699949"/><path d="m40 104 27.21232-16.32739a16 16 0 0 1 21.33968 4.54449l47.448 67.7829h40l-61.645-84.06132a48 48 0 0 0 -64.14735-12.31846l-26.20765 16.37978z" fill="#fc97ca"/><path d="m302.84009 485.56006-29.6001.87988a210.037 210.037 0 0 1 -101.86999-22.94994l-41.37-21.15992-11.65-5.96-.97-.5.97.05981 65.5 4.23a210.35938 210.35938 0 0 1 102.20005 34.31011z" fill="#9eca28"/><path d="m250.54 455.6499a217.98874 217.98874 0 0 1 -72.93-3.1299l-47.61-10.18992-11.65991-2.5.00989-3.46v-.44019l65.5 4.23a209.6192 209.6192 0 0 1 66.69002 15.49001z" fill="#83b021"/><path d="m312 432-28.37 8.51a210.00549 210.00549 0 0 1 -104.34 4.19l-45.43-9.73-12.7699-2.74-1.0901-.23.98-.2 64.33008-12.86011a209.80244 209.80244 0 0 1 107.59985 6.7002z" fill="#9eca28"/><path d="m253.74 416.62988a218.36269 218.36269 0 0 1 -71.26 15.87012l-48.62 2.47-12.7699-2.74-.11011-.42993 64.33008-12.86011a210.08978 210.08978 0 0 1 68.42993-2.31008z" fill="#83b021"/><path d="m306.98 377.89014-25.19 15.55986a209.92306 209.92306 0 0 1 -99.71 31.06006l-46.40015 2.36011-13.06985.65983-1.08.05981.87-.42993 58.83-29.09985a210.26053 210.26053 0 0 1 105.66-21.37012z" fill="#9eca28"/><path d="m246.71 378.14014a218.617 218.617 0 0 1 -64.7 33.75976l-46.33008 14.97022-11.35985 3.66988-1.71007-3.01-.21-.37012 58.83-29.09985a209.80606 209.80606 0 0 1 65.48-19.91989z" fill="#83b021"/><path d="m121.85641 422.9282 50.03253-43.97a210 210 0 0 1 96.52682-47.99508l19.71752-4.0349-20.311 21.553a210 210 0 0 1 -88.2672 55.80505z" fill="#9eca28"/><path d="m206.57007 383.39014a27.32787 27.32787 0 0 1 -5.22009 16.0498l-.80994 1.11011a27.33581 27.33581 0 0 1 -17.82004 10.92995l-52.98 8.39014c.01.00976.02.00976.03.02978h.01a54.61149 54.61149 0 0 0 14.1499 7l13.37015 4.34008a27.30748 27.30748 0 0 1 17.53 34.41992l-.42017 1.31006a27.30748 27.30748 0 0 1 -34.41988 17.53002l-1.3-.41992a27.3158 27.3158 0 0 1 -15.9-13.58008l-24.36007-47.8c-.02991.1001-.05993.2-.07995.3a1.34531 1.34531 0 0 0 -.07.27 53.92232 53.92232 0 0 0 -2.15 15.1001v14.05981a27.315 27.315 0 0 1 -27.30991 27.32009h-1.37007a27.32734 27.32734 0 0 1 -27.32-27.32007v-1.36987a27.31825 27.31825 0 0 1 8-19.31006l37.94007-37.93994a54.45427 54.45427 0 0 0 -15.62007 2.65994l-13.36987 4.34009a27.32171 27.32171 0 0 1 -34.41016-17.51v-.01c-.01-.01-.01-.01-.01-.02l-.41992-1.3a27.32195 27.32195 0 0 1 17.54-34.41992l1.30005-.42017a27.2987 27.2987 0 0 1 20.83982 1.64l47.80008 24.35012c-.06006-.16016-.11-.32007-.16992-.47022a.07766.07766 0 0 0 -.02-.04 54.01218 54.01218 0 0 0 -7.16-13.52l-8.26008-11.3699a27.311 27.311 0 0 1 6.04-38.1499l1.11-.81006a27.311 27.311 0 0 1 38.1499 6.04l.81006 1.10986a27.32979 27.32979 0 0 1 4.88004 20.3301l-8.39 52.98.03-.03.01-.01a53.65771 53.65771 0 0 0 11.03-11.28l8.27-11.36987a27.30977 27.30977 0 0 1 17.82-10.92993 27.75756 27.75756 0 0 1 4.26-.33008 27.37889 27.37889 0 0 1 16.07 5.21l1.11011.81006a27.30448 27.30448 0 0 1 10.91989 17.82994 27.93129 27.93129 0 0 1 .34007 4.27002z" fill="#d4e4f0"/><g fill="#c1d7e6"><path d="m103.39 390.65991a4.337 4.337 0 0 1 -5.2301 4.23023 53.44615 53.44615 0 0 0 -12.08984-1.08008 54.45427 54.45427 0 0 0 -15.62006 2.65994l-13.36987 4.34009a27.32171 27.32171 0 0 1 -34.41016-17.51 84.43205 84.43205 0 0 0 45.64009 6.91991l30.21-3.84985a4.32828 4.32828 0 0 1 4.86994 4.28976z"/><path d="m103.14 411.6001a54.16485 54.16485 0 0 0 -4.72008 11.0999 1.636 1.636 0 0 0 -.06994.3 1.34531 1.34531 0 0 0 -.07.27 53.92232 53.92232 0 0 0 -2.15 15.1001v14.05981a27.315 27.315 0 0 1 -27.30991 27.32009 83.96839 83.96839 0 0 0 20.54993-41.05l5.72009-30.11011a4.32052 4.32052 0 0 1 5.52991-3.32989l.06994.03a4.33309 4.33309 0 0 1 2.45006 6.3101z"/><path d="m176.16992 457.22a27.426 27.426 0 0 1 -1.33984 8.43994l-.42017 1.31006a81.78286 81.78286 0 0 0 -33.21-33.90991l-26.03-14.27a4.33252 4.33252 0 0 1 -1.43991-6.32009l.13-.16992a4.33918 4.33918 0 0 1 6.74-.36011 54.78405 54.78405 0 0 0 9.13 7.9502.06138.06138 0 0 1 .04.00976h.01a54.61149 54.61149 0 0 0 14.1499 7l13.37015 4.34007a27.3349 27.3349 0 0 1 18.86987 25.98z"/><path d="m195.31006 361.29a87.50783 87.50783 0 0 0 -41.32006 20.88993l-22.8999 20.73a4.3159 4.3159 0 0 1 -6.42017-.7l-.17993-.25a4.33352 4.33352 0 0 1 1.78-6.47 54.2403 54.2403 0 0 0 10.45-6.24993c.01-.02.02-.03.02-.05l.01-.01a53.65771 53.65771 0 0 0 11.03-11.28l8.27-11.36987a27.30977 27.30977 0 0 1 17.82-10.92993 27.75756 27.75756 0 0 1 4.26-.33008 27.37889 27.37889 0 0 1 16.07 5.21z"/><path d="m118.12 388.67993-.07.02a4.3309 4.3309 0 0 1 -5.59-3.69993 54.711 54.711 0 0 0 -2.72-11.89014 4.51405 4.51405 0 0 0 -.18994-.46.07766.07766 0 0 0 -.02-.04 54.01218 54.01218 0 0 0 -7.16-13.52l-8.26006-11.36986a27.311 27.311 0 0 1 6.04-38.1499 85.44769 85.44769 0 0 0 7.66 45.73l12.93 27.3999a4.332 4.332 0 0 1 -2.62 5.97993z"/></g><path d="m470.57037 127.38907a27.32787 27.32787 0 0 1 -5.22009 16.0498l-.80994 1.11011a27.33581 27.33581 0 0 1 -17.82007 10.92993l-52.98 8.39014c.01.00976.02.00976.03.02978h.01a54.61139 54.61139 0 0 0 14.14991 7l13.37011 4.34009a27.30744 27.30744 0 0 1 17.53 34.41992l-.42016 1.31006a27.30749 27.30749 0 0 1 -34.41993 17.53l-1.3-.41992a27.31579 27.31579 0 0 1 -15.89991-13.58008l-24.3601-47.8c-.02991.1001-.05994.2-.08.3a1.34531 1.34531 0 0 0 -.07.27 53.92232 53.92232 0 0 0 -2.15 15.1001v14.05981a27.315 27.315 0 0 1 -27.30994 27.32007h-1.37011a27.32731 27.32731 0 0 1 -27.32-27.32007v-1.36981a27.31821 27.31821 0 0 1 8-19.31006l37.94023-37.93994a54.45414 54.45414 0 0 0 -15.62011 2.65991l-13.36988 4.34009a27.32168 27.32168 0 0 1 -34.41015-17.51v-.01c-.01-.01-.01-.01-.01-.02l-.41993-1.3a27.32195 27.32195 0 0 1 17.54-34.41992l1.3-.42017a27.29873 27.29873 0 0 1 20.83993 1.64009l47.8 24.3501c-.06005-.16016-.11-.32007-.16992-.47022a.07766.07766 0 0 0 -.02-.04 54.01186 54.01186 0 0 0 -7.16-13.52l-8.26-11.36987a27.311 27.311 0 0 1 6.04-38.1499l1.11-.81006a27.311 27.311 0 0 1 38.14991 6.04l.81005 1.10986a27.32979 27.32979 0 0 1 4.88 20.33008l-8.39 52.98.03-.03.01-.01a53.65722 53.65722 0 0 0 11.03-11.28l8.27-11.36987a27.30977 27.30977 0 0 1 17.82-10.92993 27.75759 27.75759 0 0 1 4.26-.33008 27.37893 27.37893 0 0 1 16.07 5.21l1.1101.81006a27.30444 27.30444 0 0 1 10.91992 17.83008 27.93 27.93 0 0 1 .34008 4.26982z" fill="#d4e4f0"/><path d="m367.39032 134.65884a4.337 4.337 0 0 1 -5.2301 4.23023 53.44624 53.44624 0 0 0 -12.08985-1.08008 54.45414 54.45414 0 0 0 -15.62011 2.65991l-13.36988 4.3401a27.32168 27.32168 0 0 1 -34.41015-17.51 84.432 84.432 0 0 0 45.64013 6.91992l30.21-3.84985a4.32829 4.32829 0 0 1 4.86996 4.28977z" fill="#c1d7e6"/><path d="m367.14032 155.599a54.1643 54.1643 0 0 0 -4.72009 11.09985 1.63607 1.63607 0 0 0 -.07.3 1.34531 1.34531 0 0 0 -.07.27 53.92232 53.92232 0 0 0 -2.15 15.1001v14.05981a27.315 27.315 0 0 1 -27.30994 27.32007 83.96839 83.96839 0 0 0 20.54993-41.05l5.72009-30.11011a4.32052 4.32052 0 0 1 5.52991-3.32983l.07.03a4.3331 4.3331 0 0 1 2.4501 6.31011z" fill="#c1d7e6"/><path d="m440.17023 201.2189a27.426 27.426 0 0 1 -1.33985 8.43994l-.42016 1.31006a81.78286 81.78286 0 0 0 -33.21-33.90991l-26.03-14.27a4.33252 4.33252 0 0 1 -1.44-6.32007l.13-.16992a4.33918 4.33918 0 0 1 6.74-.36011 54.78445 54.78445 0 0 0 9.13 7.9502.06138.06138 0 0 1 .04.00976h.01a54.61139 54.61139 0 0 0 14.14991 7l13.37011 4.34009a27.33489 27.33489 0 0 1 18.86988 25.98z" fill="#c1d7e6"/><path d="m459.31036 105.289a87.50792 87.50792 0 0 0 -41.32007 20.88989l-22.8999 20.73a4.31589 4.31589 0 0 1 -6.42016-.7l-.17994-.25a4.33352 4.33352 0 0 1 1.78-6.47 54.2403 54.2403 0 0 0 10.45-6.25c.01-.02.02-.03.02-.05l.01-.01a53.65722 53.65722 0 0 0 11.03-11.28l8.27-11.36987a27.30977 27.30977 0 0 1 17.82-10.92993 27.75759 27.75759 0 0 1 4.26-.33008 27.37893 27.37893 0 0 1 16.07 5.21z" fill="#c1d7e6"/><path d="m382.1203 132.67886-.07.02a4.3309 4.3309 0 0 1 -5.59009-3.7 54.711 54.711 0 0 0 -2.72-11.89014 4.51178 4.51178 0 0 0 -.18994-.46.07766.07766 0 0 0 -.02-.04 54.01186 54.01186 0 0 0 -7.16-13.52l-8.26-11.36987a27.311 27.311 0 0 1 6.04-38.1499 85.44769 85.44769 0 0 0 7.66 45.73l12.92993 27.3999a4.332 4.332 0 0 1 -2.6199 5.98001z" fill="#c1d7e6"/></g></svg>