<svg height="482pt" viewBox="0 -1 482.82207 482" width="482pt" xmlns="http://www.w3.org/2000/svg"><path d="m152.074219 152.109375c-47.425781 23.710937-75.855469 64.289063-64 88l176-88c-11.855469-23.75-64.578125-23.710937-112 0zm0 0" fill="#51a262"/><path d="m408.074219 152.109375c47.421875 23.710937 75.855469 64.289063 64 88l-176-88c11.855469-23.75 64.574219-23.710937 112 0zm0 0" fill="#51a262"/><path d="m230.105469 50.285156c-37.496094-37.488281-83.078125-52.6875-101.824219-33.945312l135.792969 135.769531c18.71875-18.742187 3.519531-64.335937-33.96875-101.824219zm0 0" fill="#51a262"/><path d="m330.25 50.285156c37.488281-37.488281 83.078125-52.6875 101.824219-33.945312l-135.769531 135.769531c-18.742188-18.742187-3.542969-64.335937 33.945312-101.824219zm0 0" fill="#51a262"/><path d="m312.074219 408.109375h-64l16-264h32zm0 0" fill="#d9833b"/><path d="m256.074219 336.109375h24v16h-24zm0 0" fill="#ffd782"/><path d="m280.074219 304.109375h24v16h-24zm0 0" fill="#ffd782"/><path d="m256.074219 240.109375h24v16h-24zm0 0" fill="#ffd782"/><path d="m424.074219 432.109375h16v16h-16zm0 0"/><path d="m152.074219 112.109375v-8c.574219-6.523437-1.769531-12.96875-6.402344-17.597656-4.628906-4.632813-11.074219-6.976563-17.597656-6.402344h-8c-4.746094-15.199219-16-24-40-24-17.816407 0-36.144531 7.457031-40 24h-8c-6.417969-.179687-12.628907 2.289063-17.171875 6.832031-4.539063 4.539063-7.007813 10.75-6.828125 17.167969v8zm0 0" fill="#50b3c9"/><path d="m104.074219 408.109375c-8.628907.496094-17.058594-2.714844-23.171875-8.828125-6.113282-6.113281-9.324219-14.542969-8.828125-23.171875 1.160156-17.167969 14.832031-30.839844 32-32 17.167969 1.160156 30.839843 14.832031 32 32 0-56-24-64-64-64-17.207031-.800781-33.957031 5.683594-46.136719 17.863281-12.179688 12.179688-18.664062 28.929688-17.863281 46.136719v96h216l-48-64zm0 0" fill="#50b3c9"/><path d="m100.875 416.613281c-14.738281 0-39.546875-2.289062-55-16.128906-9.171875-8.214844-14.226562-20.070313-13.800781-32.375h16c-.378907 7.738281 2.730469 15.238281 8.472656 20.441406 17.261719 15.480469 54.269531 11.648438 54.65625 11.605469l1.75 15.90625c-4.015625.390625-8.046875.574219-12.078125.550781zm0 0" fill="#7fcac9"/><path d="m176.074219 408.109375h296v64h-248zm0 0" fill="#ffd782"/><path d="m408.074219 320.109375h-48v-16h48c8.835937 0 16-7.164063 16-16s-7.164063-16-16-16c-8.835938 0-16 7.164063-16 16h-16c0-17.671875 14.328125-32 32-32s32 14.328125 32 32-14.328125 32-32 32zm0 0" fill="#cfdfe8"/><path d="m352.074219 336.109375h40v16h-40zm0 0" fill="#cfdfe8"/><path d="m144.074219 256.109375h88v16h-88zm0 0" fill="#cfdfe8"/><path d="m128.074219 288.109375h88v16h-88zm0 0" fill="#cfdfe8"/><path d="m8.074219 432.109375h96v16h-96zm0 0" fill="#7fcac9"/><path d="m288.074219 432.109375h16v16h-16zm0 0" fill="#d9833b"/><path d="m352.074219 432.109375h16v16h-16zm0 0" fill="#d9833b"/><g fill="#c8d952"><path d="m128.308594 214.175781 8.003906-32 15.519531 3.882813-8.003906 31.996094zm0 0"/><path d="m176.074219 168.109375h16v24h-16zm0 0"/><path d="m168.480469 61.574219 8.003906-23.996094 15.175781 5.0625-8 23.996094zm0 0"/><path d="m200.480469 93.574219 8.003906-23.996094 15.175781 5.0625-8 23.996094zm0 0"/><path d="m328.074219 80.109375h16v32h-16zm0 0"/><path d="m368.074219 48.109375h16v24h-16zm0 0"/><path d="m342.125 168.351562 32-8.003906 3.882812 15.523438-32 8.003906zm0 0"/><path d="m387.632812 193.449219 24.003907-16 8.875 13.3125-24.003907 16.003906zm0 0"/></g><path d="m472.074219 248.109375c3.046875.015625 5.835937-1.699219 7.199219-4.425781 14.320312-28.644532-16-72.933594-67.582032-98.734375-22.613281-11.570313-47.523437-17.945313-72.914062-18.648438h-.054688c-1.898437 0-3.671875.136719-5.480468.226563l104.488281-104.53125c3.121093-3.121094 3.121093-8.1875 0-11.3125-22.214844-22.207032-71.898438-7.292969-113.136719 33.945312-30.769531 30.769532-46.847656 66.222656-43.832031 91.480469h-1.175781c3.023437-25.257813-13.0625-60.710937-43.824219-91.480469-41.238281-41.238281-90.9375-56.136718-113.136719-33.945312-3.121094 3.125-3.121094 8.191406 0 11.3125l104.535156 104.511718c-1.878906-.09375-3.71875-.230468-5.695312-.230468h-.054688c-25.390625.703125-50.300781 7.074218-72.914062 18.648437-51.621094 25.824219-81.902344 70.113281-67.582032 98.757813 1.355469 2.714844 4.128907 4.425781 7.160157 4.425781 1.238281.011719 2.460937-.261719 3.574219-.800781l163.105468-81.597656-14.207031 234.398437h-136.472656c-6.511719.515625-12.917969-1.847656-17.535157-6.464844-4.617187-4.617187-6.980468-11.027343-6.464843-17.535156 1.117187-12.765625 11.234375-22.882813 24-24 12.761719 1.117187 22.882812 11.234375 24 24 0 4.417969 3.582031 8 8 8s8-3.582031 8-8c0-59.960937-27.550781-72-72-72-19.355469-.894531-38.195313 6.402344-51.898438 20.101563-13.699219 13.703124-21 32.542968-20.1015622 51.898437v96c0 4.417969 3.5820312 8 8.0000002 8h464c4.417969 0 8-3.582031 8-8v-64c0-4.417969-3.582031-8-8-8h-152.472657l-14.207031-234.398437 163.101563 81.597656c1.117187.539062 2.339844.8125 3.578125.800781zm-136.167969-192.167969c31.542969-31.542968 65.917969-43.832031 83.367188-38.136718l-35.199219 35.226562v-4.921875h-16v20.921875l-24 24v-12.921875h-16v28.921875l-25.359375 25.359375c-1.226563.722656-2.410156 1.511719-3.554688 2.359375-.621094-.214844-1.265625-.351562-1.917968-.417969-3.648438-18.191406 8.742187-50.460937 38.664062-80.390625zm-118.6875 38.03125 6.445312-19.335937-15.199218-5.054688-3.910156 11.734375-19.335938-19.34375 6.445312-19.335937-15.199218-5.054688-3.910156 11.734375-31.496094-31.511718c17.472656-5.6875 51.847656 6.59375 83.390625 38.136718 29.894531 29.902344 42.289062 62.152344 38.671875 80.351563-.730469.050781-1.449219.207031-2.136719.457031-1-.738281-2.007813-1.464844-3.109375-2.121094zm-112.882812 106.800782c13.652343-17.617188 31.222656-31.816407 51.3125-41.464844 20.351562-10.570313 42.832031-16.398438 65.753906-17.046875 9.308594-.363281 18.5625 1.535156 26.976562 5.535156l2.144532 2.144531-58.449219 29.199219v-11.03125h-16v19.03125l-28 14.015625 3.777343-15.101562-15.523437-3.890626-7.101563 28.425782-35.832031 17.917968c.683594-10.15625 4.507813-19.847656 10.941407-27.734374zm-88.261719 263.335937v-16h88v-16h-88v-56c-.878907-15.105469 4.742187-29.863281 15.4375-40.5625 10.699219-10.695313 25.457031-16.3125 40.5625-15.4375 27.03125 0 43.296875 3.648437 50.863281 21.417969-5.691406-3.460938-12.203125-5.332032-18.863281-5.417969-21.632813 1.070313-38.929688 18.367187-40 40-.007813 6.773437 1.570312 13.453125 4.597656 19.511719-4.4375-1.601563-8.546875-3.996094-12.125-7.070313-5.742187-5.203125-8.851563-12.703125-8.472656-20.441406h-16c-.417969 12.308594 4.644531 24.167969 13.824219 32.375 15.457031 13.839844 40.261718 16.128906 55 16.128906 6.070312 0 10.253906-.367187 11.542968-.503906h59.632813l36 48zm448 0h-236l-36-48h272zm-207.503907-64 2.910157-48h20.59375v-16h-19.625l4.855469-80h14.769531v-16h-13.800781l5.113281-84.359375c.988281-1.152344 1.894531-2.367188 2.71875-3.640625h12.144531c.757812 1.175781 1.59375 2.300781 2.496094 3.367187l9.007812 148.632813h-17.679687v16h18.648437l4.855469 80zm151.421876-201 12.523437-8.34375-8.882813-13.3125-20.117187 13.417969-24.480469-12.257813 10.984375-2.742187-3.890625-15.523438-29.078125 7.273438-35.289062-17.65625 2.761719-2.757813c17.695312-8.800781 54.71875-6.578125 92 12.0625 20.09375 9.660157 37.664062 23.871094 51.308593 41.503907 6.441407 7.886718 10.273438 17.578124 10.960938 27.734374zm0 0"/><path d="m424.074219 432.109375h16v16h-16zm0 0"/><path d="m8.074219 120.109375h144c4.417969 0 8-3.582031 8-8v-8c.605469-8.65625-2.574219-17.152344-8.710938-23.289063-6.136719-6.140624-14.632812-9.316406-23.289062-8.710937h-2.480469c-7.273438-16.136719-22.222656-24-45.519531-24-21.847657 0-39.023438 9.222656-45.695313 24h-2.304687c-8.542969-.191406-16.796875 3.117187-22.839844 9.160156s-9.351563 14.296875-9.1601562 22.839844v8c0 4.417969 3.5820312 8 8.0000002 8zm24-32h8c3.71875 0 6.949219-2.5625 7.792969-6.183594 3.0625-13.152343 19.261718-17.816406 32.207031-17.816406 23.414062 0 29.390625 8.800781 32.359375 18.398437 1.050781 3.335938 4.144531 5.605469 7.640625 5.601563h8c4.386719-.546875 8.785156.960937 11.910156 4.089844 3.128906 3.125 4.636719 7.523437 4.089844 11.910156h-128c-.199219-4.300781 1.421875-8.488281 4.464843-11.535156 3.046876-3.042969 7.234376-4.664063 11.535157-4.464844zm0 0"/><path d="m440.074219 288.109375c0-17.671875-14.328125-32-32-32s-32 14.328125-32 32h16c0-8.835937 7.164062-16 16-16 8.835937 0 16 7.164063 16 16s-7.164063 16-16 16h-48v16h48c17.671875 0 32-14.328125 32-32zm0 0"/><path d="m352.074219 336.109375h40v16h-40zm0 0"/><path d="m144.074219 256.109375h88v16h-88zm0 0"/><path d="m128.074219 288.109375h88v16h-88zm0 0"/><path d="m288.074219 432.109375h16v16h-16zm0 0"/><path d="m352.074219 432.109375h16v16h-16zm0 0"/></svg>