<svg height="512" viewBox="0 0 512 512" width="512" xmlns="http://www.w3.org/2000/svg"><g id="Flat"><path d="m296 64v24a32.02511 32.02511 0 0 1 -15.99 27.72h-.01v44.28h-48v-44.28a32.00094 32.00094 0 0 1 -16-27.72v-24a40 40 0 0 1 80 0z" fill="#7ab355"/><path d="m232.01 115.71a31.75332 31.75332 0 0 0 15.99 4.29v16a47.87969 47.87969 0 0 1 -16-2.74v-17.54z" fill="#699949"/><path d="m280 115.72v17.54a47.87969 47.87969 0 0 1 -16 2.74v-16a31.753 31.753 0 0 0 15.99-4.29z" fill="#699949"/><path d="m488 123.08a19.08641 19.08641 0 0 1 -11.99 17.72l-74.79 29.91a38.81979 38.81979 0 0 1 -33.69-2.32.46752.46752 0 0 1 -.1001-.05l-14.96 8.97-24.4699 14.69-24-32a55.8176 55.8176 0 0 1 16-39.19c.13-.14.26-.27.4-.41a56.43641 56.43641 0 0 1 15.6-11.01 55.9891 55.9891 0 0 1 24-5.39h108.91992a19.07694 19.07694 0 0 1 19.08008 19.08z" fill="#7ab355"/><path d="m416 104h16v24h-16z" fill="#68737f"/><path d="m448 104h16v24h-16z" fill="#68737f"/><path d="m432 128h16v16h-16z" fill="#68737f"/><path d="m384 104h16v24h-16z" fill="#68737f"/><path d="m400 128h16v16h-16z" fill="#68737f"/><path d="m368 104v24h-16v-23.43a55.49325 55.49325 0 0 1 8-.57z" fill="#68737f"/><path d="m368 128h16v16h-16z" fill="#68737f"/><path d="m336 109.39v18.61h-16v-7.19c.13-.14.26-.27.4-.41a56.43641 56.43641 0 0 1 15.6-11.01z" fill="#68737f"/><path d="m336 128h16v16h-16z" fill="#68737f"/><path d="m367.53 168.39a.46752.46752 0 0 1 -.1001-.05l-14.96 8.97a54.20567 54.20567 0 0 1 -14.78-18.15l14.3101-7.16a38.75044 38.75044 0 0 0 15.48 16.24.881.881 0 0 0 .05.15z" fill="#699949"/><path d="m24 123.08a19.08641 19.08641 0 0 0 11.99 17.72l74.79 29.91a38.81979 38.81979 0 0 0 33.69-2.32.46752.46752 0 0 0 .1001-.05l14.96 8.97 24.4699 14.69 24-32a55.8176 55.8176 0 0 0 -16-39.19c-.13-.14-.26-.27-.4-.41a56.43641 56.43641 0 0 0 -15.6-11.01 55.9891 55.9891 0 0 0 -24-5.39h-108.91992a19.07694 19.07694 0 0 0 -19.08008 19.08z" fill="#7ab355"/><path d="m80 104h16v24h-16z" fill="#68737f"/><path d="m48 104h16v24h-16z" fill="#68737f"/><path d="m64 128h16v16h-16z" fill="#68737f"/><path d="m112 104h16v24h-16z" fill="#68737f"/><path d="m96 128h16v16h-16z" fill="#68737f"/><path d="m144 104v24h16v-23.43a55.49325 55.49325 0 0 0 -8-.57z" fill="#68737f"/><path d="m128 128h16v16h-16z" fill="#68737f"/><path d="m176 109.39v18.61h16v-7.19c-.13-.14-.26-.27-.4-.41a56.43641 56.43641 0 0 0 -15.6-11.01z" fill="#68737f"/><path d="m160 128h16v16h-16z" fill="#68737f"/><path d="m144.47 168.39a.46752.46752 0 0 0 .1001-.05l14.96 8.97a54.20567 54.20567 0 0 0 14.78-18.15l-14.3101-7.16a38.75044 38.75044 0 0 1 -15.48 16.24.881.881 0 0 1 -.05.15z" fill="#699949"/><path d="m224 440a79.66024 79.66024 0 0 1 -15.99 48h-.01a56.00916 56.00916 0 0 1 -13.8-110.29 79.91973 79.91973 0 0 1 29.8 62.29z" fill="#7ab355"/><path d="m224 440a79.66024 79.66024 0 0 1 -15.99 48h-.01a56.00916 56.00916 0 0 1 -13.8-110.29 79.91973 79.91973 0 0 1 29.8 62.29z" fill="#7ab355"/><path d="m360 432a55.9679 55.9679 0 0 1 -56 56h-.01a79.99816 79.99816 0 0 1 13.81006-110.29 56.04445 56.04445 0 0 1 41.62987 46.29 55.47549 55.47549 0 0 1 .57007 8z" fill="#7ab355"/><path d="m360 432a55.9679 55.9679 0 0 1 -56 56h-.01a79.99816 79.99816 0 0 1 13.81006-110.29 56.04445 56.04445 0 0 1 41.62987 46.29 55.47549 55.47549 0 0 1 .57007 8z" fill="#7ab355"/><g fill="#68737f"><path d="m168 424v16h-15.43a56.42437 56.42437 0 0 1 0-16z"/><path d="m168 440h16v16h-16z"/><path d="m224 440h-40v-16h38.39a79.58865 79.58865 0 0 1 1.61 16z"/><path d="m184 456h16v16h-16z"/><path d="m360 432a55.4761 55.4761 0 0 1 -.57007 8h-15.42993v-16h15.42993a55.47549 55.47549 0 0 1 .57007 8z"/><path d="m328 440h16v16h-16z"/><path d="m328 424v16h-40a79.593 79.593 0 0 1 1.61-16z"/><path d="m312 456h16v16h-16z"/><path d="m248 40h16v16h-16z"/><path d="m264 56h16v16h-16z"/><path d="m232 56h16v16h-16z"/><path d="m248 72h16v16h-16z"/><path d="m232 88h16v16h-16z"/><path d="m264 88h16v16h-16z"/></g><path d="m392 272c0 .59 0 1.18-.01 1.76s-.02 1.17-.03 1.75q-.12 6.27-.68 12.49-.72 8.07-2.13 16a191.32274 191.32274 0 0 1 -14.56994 46.34q-3.34515 7.29006-7.28 14.26a192.13492 192.13492 0 0 1 -26.42006 36.29q-5.5501 6-11.59 11.46a173.37721 173.37721 0 0 1 -34.01 24.14q-7.125 3.84-14.59009 6.97a155.60336 155.60336 0 0 1 -24.68991 7.97 174.57719 174.57719 0 0 1 -24.83-7.76q-7.575-3-14.78-6.68a174.97126 174.97126 0 0 1 -34.67-23.15c-4.11-3.51-8.06995-7.21-11.83-11.09a175.79006 175.79006 0 0 1 -27.59-36.95q-3.9-6.96-7.17-14.31a174.66542 174.66542 0 0 1 -13.5-47.49q-1.08-7.905-1.44-16c-.07-1.49-.12-2.99-.15-4.49-.01-.58-.02-1.17-.03-1.75s-.01-1.17-.01-1.76 0-1.18.01-1.76.02-1.17.03-1.75a135.94508 135.94508 0 0 1 4-29.51 133.24183 133.24183 0 0 1 5.02-15.88 135.786 135.786 0 0 1 120.17-86.93q3.36-.165 6.77-.17 3.405 0 6.76.15a151.27963 151.27963 0 0 1 19.94 2.14 140.06363 140.06363 0 0 1 54.72 21.81 126.32049 126.32049 0 0 1 14.11 11.06 121.47339 121.47339 0 0 1 33.51 50.53 123.33907 123.33907 0 0 1 4.42 16.28 131.66584 131.66584 0 0 1 2.5 22.52c.02.58.03 1.16.03 1.75.01.58.01 1.17.01 1.76z" fill="#fab53f"/><path d="m249.23 144.17-21.42 35.69-24.15 40.26-13.72-8.24 12.71-21.18 26.42-44.03a134.966 134.966 0 0 1 20.16-2.5z" fill="#fae7cb"/><path d="m187.59 233.15-15.69 3.14-2.72-13.6-8.03-40.16a137.143 137.143 0 0 1 13.94-11.85l7.2 35.96z" fill="#fae7cb"/><path d="m177.05 263.09-8.87 13.31-15.28-10.19-28.86-19.23a133.24183 133.24183 0 0 1 5.02-15.88l27.49 18.33z" fill="#fae7cb"/><path d="m169.9 288v16h-48.27q-1.08-7.905-1.44-16z" fill="#fae7cb"/><path d="m198.86 337.51-27.96 13.98-28.6 14.31q-3.9-6.96-7.17-14.31l28.63-14.32 27.94-13.97z" fill="#fae7cb"/><path d="m215.73 362.82-16.17 24.25-17.84 26.77c-4.11-3.51-8.06995-7.21-11.83-11.09l18.18-27.28 14.35-21.52z" fill="#fae7cb"/><path d="m323.91992 214.98-13.72 8.23-26.01-43.35-21.42992-35.71a151.27963 151.27963 0 0 1 19.94 2.14l26.65 44.41z" fill="#fae7cb"/><path d="m351.53 179.16-8.71 43.54-3.78 18.87-15.68-3.14 6.36-31.78 7.7-38.55a126.32049 126.32049 0 0 1 14.11 11.06z" fill="#fae7cb"/><path d="m389.46 245.97-30.36987 20.25-14.65015 9.77-8.87988-13.31 19.87988-13.26 29.60002-19.73a123.33907 123.33907 0 0 1 4.42 16.28z" fill="#fae7cb"/><path d="m391.28 288q-.72 8.07-2.13 16h-51.56992v-16z" fill="#fae7cb"/><path d="m374.58008 350.34q-3.34515 7.29006-7.28 14.26l-26.20008-13.1-19.24-9.62 7.16-14.31 19.22 9.61z" fill="#fae7cb"/><path d="m340.88 400.89q-5.5501 6-11.59 11.46l-16.8501-25.28-16.1699-24.25 13.31006-8.87 14.34985 21.52z" fill="#fae7cb"/><path d="m295.28 436.49q-7.125 3.84-14.59009 6.97l-18.09985-27.15-1.72006-2.58h-9.74l-1.72 2.58-18.24 27.36q-7.575-3-14.78-6.68l17.87-26.81 5.93-8.89a8.00613 8.00613 0 0 1 6.66-3.56h18.3a8.00615 8.00615 0 0 1 6.66 3.56l5.92993 8.89z" fill="#fae7cb"/><path d="m256 434.38037a15.993 15.993 0 0 1 -4.41992-.62256 159.72822 159.72822 0 0 1 -115.543-150.56054l-.03027-1.72266c-.00635-.42334-.00733-.85693-.00684-1.29492v-.35938c-.00049-.43164.00049-.87256.00732-1.30713l.02735-1.60254a120.00546 120.00546 0 0 1 239.93066-.01367l.00635.21924c.01123.31787.01855.71729.01855 1.124l.00342.40918c.00586.28028.00684.73.00635 1.18067v.34961c.00049.43164-.00049.87256-.00732 1.30713l-.03028 1.75927a159.69941 159.69941 0 0 1 -115.54391 150.51223 15.99285 15.99285 0 0 1 -4.41846.62207zm0-16v8l.00049-8zm0-242.38037a104.008 104.008 0 0 0 -103.96924 101.26025l-.02539 1.521c-.00586.33545-.00586.68164-.00537 1.0293v.3789c-.00049.354-.00049.69483.00488 1.01807l.0293 1.69385a143.72794 143.72794 0 0 0 103.96582 135.479 143.69881 143.69881 0 0 0 103.96484-135.42871l.02979-1.73389c.00586-.33447.00586-.68066.00537-1.02832v-.36914c.00049-.34814.00049-.68554-.00439-.957l-.00489-.55713c-.00049-.27832-.0039-.4873-.01025-.6709l-.00928-.29248a104.00764 104.00764 0 0 0 -103.97119-101.3428z" fill="#fae7cb"/><path d="m360 280c0 .41 0 .82-.01 1.22l-.03 1.75a143.79159 143.79159 0 0 1 -66.88989 118.79 141.96532 141.96532 0 0 1 -14.57011 8.06 143.66161 143.66161 0 0 1 -22.5 8.56 143.66615 143.66615 0 0 1 -22.5-8.56 145.14325 145.14325 0 0 1 -14.58-8.06 143.89641 143.89641 0 0 1 -55.88-66.3 141.853 141.853 0 0 1 -5.33-15.13 144.206 144.206 0 0 1 -5.68-37.45l-.03-1.68v-1.2c0-.41 0-.82.01-1.22l.02-1.59a102.94022 102.94022 0 0 1 1.19-13.19 101.74192 101.74192 0 0 1 3.78-16 104.47884 104.47884 0 0 1 51.26-60.43 100.84839 100.84839 0 0 1 15.98-6.64 104.76725 104.76725 0 0 1 63.52 0 103.75852 103.75852 0 0 1 71.02 83.07 104.66992 104.66992 0 0 1 1.19 13.3l.01.3c.01.21.01.42.01.64v.54c.01.4.01.81.01 1.22z" fill="#fdca77"/><path d="m282.79 274.43 15.63993-10.43h60.35007a103.15172 103.15172 0 0 0 -3.78-16h-54.05l-19.21-38.42 22.01-22.01a102.86691 102.86691 0 0 0 -15.99-6.64l-19.07006 19.07h-25.37994l-19.07-19.07a100.84839 100.84839 0 0 0 -15.98 6.64l22 22.01-19.21 38.42h-54.05a101.74192 101.74192 0 0 0 -3.78 16h60.35l15.64 10.43-18.45 30.75-53.05 15.15a141.853 141.853 0 0 0 5.33 15.13l50.63-14.47 16.59 16.59-11.78 23.55v.01l-35.08 8.77a142.23648 142.23648 0 0 0 12.19 13.44l26.91-6.73 12.94 8.62-16.52 16.52a145.14325 145.14325 0 0 0 14.58 8.06l17.82-17.82h9.35992l17.82008 17.82a141.96532 141.96532 0 0 0 14.57007-8.06l-16.51-16.52 12.93993-8.62 26.91992 6.73a143.48974 143.48974 0 0 0 12.18008-13.44l-35.08-8.77v-.01l-11.78-23.55 16.59009-16.59 50.63991 14.47a144.66735 144.66735 0 0 0 5.32-15.12l-53.05-15.16zm-56.48-21.17 18.64-37.26h22.1l18.63989 37.26-16.11982 10.74h-27.14007zm35.27008 122.74h-11.16008l-16.11-10.74 10.64-21.26h22.1l10.63989 21.26zm7.10986-48h-25.37994l-17.24-17.24 18.46-30.76h22.94l18.46 30.76z" fill="#fae7cb"/></g></svg>